<svg width="206" height="30" viewBox="0 0 206 30" fill="none" xmlns="http://www.w3.org/2000/svg">
<path d="M181.934 27.8868V16.0996L178.278 12.7553L175 10.8994V25.8066C175 26.9576 175.933 27.8868 177.08 27.8868H181.934Z" fill="#4285F4"/>
<path d="M198.574 27.8866H203.428C204.579 27.8866 205.508 26.954 205.508 25.8065V10.8994L201.795 13.0251L198.574 16.0994V27.8866Z" fill="#34A853"/>
<path d="M181.934 16.0996L181.436 11.494L181.934 7.08594L190.254 13.3262L198.574 7.08594L199.131 11.256L198.574 16.0996L190.254 22.3398L181.934 16.0996Z" fill="#EA4335"/>
<path d="M198.574 7.08593V16.0995L205.508 10.8994V8.12594C205.508 5.55363 202.571 4.08723 200.516 5.6299L198.574 7.08593Z" fill="#FBBC04"/>
<path d="M175 10.8995L178.189 13.2912L181.934 16.0996V7.08599L179.992 5.62996C177.933 4.08717 175 5.55369 175 8.12587V10.8995Z" fill="#C5221F"/>
<path d="M27.2569 12.5519H26.25V12.5H15V17.5H22.0644C21.0338 20.4106 18.2644 22.5 15 22.5C10.8581 22.5 7.5 19.1419 7.5 15C7.5 10.8581 10.8581 7.5 15 7.5C16.9119 7.5 18.6513 8.22125 19.9756 9.39937L23.5112 5.86375C21.2787 3.78312 18.2925 2.5 15 2.5C8.09688 2.5 2.5 8.09688 2.5 15C2.5 21.9031 8.09688 27.5 15 27.5C21.9031 27.5 27.5 21.9031 27.5 15C27.5 14.1619 27.4137 13.3438 27.2569 12.5519Z" fill="#FFC107"/>
<path d="M3.94128 9.18188L8.04816 12.1938C9.15941 9.4425 11.8507 7.5 15 7.5C16.9119 7.5 18.6513 8.22125 19.9757 9.39937L23.5113 5.86375C21.2788 3.78312 18.2925 2.5 15 2.5C10.1988 2.5 6.03503 5.21062 3.94128 9.18188Z" fill="#FF3D00"/>
<path d="M15 27.4999C18.2287 27.4999 21.1625 26.2643 23.3806 24.2549L19.5118 20.9812C18.2149 21.9681 16.6297 22.5017 15 22.4999C11.7487 22.4999 8.98808 20.4268 7.94808 17.5337L3.87183 20.6743C5.94058 24.7224 10.1418 27.4999 15 27.4999Z" fill="#4CAF50"/>
<path d="M27.2569 12.5519H26.25V12.5H15V17.5H22.0644C21.5714 18.8853 20.6833 20.0957 19.51 20.9819L19.5119 20.9806L23.3806 24.2544C23.1069 24.5031 27.5 21.25 27.5 15C27.5 14.1619 27.4137 13.3438 27.2569 12.5519Z" fill="#1976D2"/>
<path d="M114.34 1.13184H89.6625C88.8173 1.13184 88.1321 1.81705 88.1321 2.6623V27.3396C88.1321 28.1849 88.8173 28.8701 89.6625 28.8701H114.34C115.185 28.8701 115.87 28.1849 115.87 27.3396V2.6623C115.87 1.81705 115.185 1.13184 114.34 1.13184Z" fill="#3D5A98"/>
<path d="M107.269 28.8679V18.1265H110.873L111.412 13.9405H107.269V11.2687C107.269 10.0569 107.606 9.22959 109.343 9.22959H111.56V5.47959C110.486 5.3679 109.408 5.31469 108.328 5.32021C105.136 5.32021 102.937 7.26553 102.937 10.8538V13.9405H99.3328V18.1265H102.937V28.8679H107.269Z" fill="white"/>
</svg>
