<svg width="28" height="33" viewBox="0 0 28 33" fill="none" xmlns="http://www.w3.org/2000/svg">
<path d="M3.51351 32.75C2.58446 32.75 1.78941 32.4472 1.12837 31.8415C0.467339 31.2359 0.136258 30.507 0.135132 29.6548V14.1786C0.135132 13.3274 0.466213 12.599 1.12837 11.9933C1.79054 11.3877 2.58558 11.0844 3.51351 11.0833H5.2027V7.9881C5.2027 5.84722 6.02646 4.02258 7.67398 2.51417C9.3215 1.00576 11.3131 0.251033 13.6486 0.250001C15.9842 0.248969 17.9763 1.00369 19.625 2.51417C21.2736 4.02464 22.0968 5.84929 22.0946 7.9881V11.0833H23.7838C24.7128 11.0833 25.5084 11.3867 26.1706 11.9933C26.8328 12.6 27.1633 13.3284 27.1622 14.1786V29.6548C27.1622 30.5059 26.8316 31.2349 26.1706 31.8415C25.5096 32.4482 24.714 32.751 23.7838 32.75H3.51351ZM13.6486 25.0119C14.5777 25.0119 15.3733 24.7091 16.0355 24.1035C16.6976 23.4978 17.0281 22.7689 17.027 21.9167C17.0259 21.0644 16.6954 20.336 16.0355 19.7314C15.3756 19.1268 14.5799 18.8235 13.6486 18.8214C12.7173 18.8194 11.9223 19.1227 11.2635 19.7314C10.6047 20.3402 10.2736 21.0686 10.2703 21.9167C10.2669 22.7648 10.598 23.4937 11.2635 24.1035C11.929 24.7132 12.7241 25.016 13.6486 25.0119ZM8.58108 11.0833H18.7162V7.9881C18.7162 6.69841 18.2235 5.60218 17.2382 4.69941C16.2528 3.79663 15.0563 3.34524 13.6486 3.34524C12.241 3.34524 11.0445 3.79663 10.0591 4.69941C9.07376 5.60218 8.58108 6.69841 8.58108 7.9881V11.0833Z" fill="#001F3F"/>
</svg>
