<svg width="35" height="35" viewBox="0 0 35 35" fill="none" xmlns="http://www.w3.org/2000/svg">
<path d="M31.4213 11.5782C31.0111 11.1681 30.4548 10.9378 29.8747 10.9378C29.2947 10.9378 28.7384 11.1681 28.3282 11.5782L17.5 22.4064L6.67192 11.5782C6.25935 11.1798 5.70679 10.9593 5.13323 10.9643C4.55968 10.9693 4.01102 11.1993 3.60544 11.6049C3.19986 12.0105 2.96981 12.5591 2.96482 13.1327C2.95984 13.7062 3.18033 14.2588 3.5788 14.6714L15.9535 27.0461C16.3637 27.4561 16.92 27.6865 17.5 27.6865C18.0801 27.6865 18.6364 27.4561 19.0466 27.0461L31.4213 14.6714C31.8314 14.2611 32.0618 13.7048 32.0618 13.1248C32.0618 12.5448 31.8314 11.9885 31.4213 11.5782Z" fill="white"/>
</svg>
