<svg width="50" height="50" viewBox="0 0 50 50" fill="none" xmlns="http://www.w3.org/2000/svg">
<path d="M45.8333 6.25H4.16663V18.75H6.24996V41.6667C6.24996 42.7717 6.68895 43.8315 7.47035 44.6129C8.25175 45.3943 9.31156 45.8333 10.4166 45.8333H39.5833C40.6884 45.8333 41.7482 45.3943 42.5296 44.6129C43.311 43.8315 43.75 42.7717 43.75 41.6667V18.75H45.8333V6.25ZM8.33329 10.4167H41.6666V14.5833H8.33329V10.4167ZM39.5833 41.6667H10.4166V18.75H39.5833V41.6667ZM18.75 22.9167H31.25C31.25 24.0217 30.811 25.0815 30.0296 25.8629C29.2482 26.6443 28.1884 27.0833 27.0833 27.0833H22.9166C21.8116 27.0833 20.7517 26.6443 19.9703 25.8629C19.1889 25.0815 18.75 24.0217 18.75 22.9167Z" fill="white"/>
</svg>
