<svg width="42" height="46" viewBox="0 0 42 46" fill="none" xmlns="http://www.w3.org/2000/svg">
<path d="M6.41663 14.7498C6.41663 10.8821 7.95308 7.17277 10.688 4.43786C13.4229 1.70296 17.1322 0.166504 21 0.166504C24.8677 0.166504 28.577 1.70296 31.3119 4.43786C34.0468 7.17277 35.5833 10.8821 35.5833 14.7498V16.9061C39.1166 17.4123 41.8333 20.4519 41.8333 24.1248V24.6457C41.8333 28.3436 38.6437 31.5853 34.8916 31.4123C33.35 35.829 29.4291 38.8061 25.1979 39.5603C24.2187 39.9186 23.0604 39.7498 22.0416 39.7498C21.2128 39.7498 20.418 39.4206 19.8319 38.8345C19.2459 38.2485 18.9166 37.4536 18.9166 36.6248C18.9166 35.796 19.2459 35.0012 19.8319 34.4151C20.418 33.8291 21.2128 33.4998 22.0416 33.4998C23.6937 33.4998 25.5229 33.2603 26.6395 34.7686C29.3395 33.4832 31.4166 30.7686 31.4166 27.2498V14.7498C31.4166 11.9872 30.3192 9.33765 28.3657 7.38414C26.4121 5.43064 23.7626 4.33317 21 4.33317C18.2373 4.33317 15.5878 5.43064 13.6343 7.38414C11.6808 9.33765 10.5833 11.9872 10.5833 14.7498V27.7707C10.5833 28.7376 10.1992 29.6649 9.51545 30.3487C8.83173 31.0324 7.90439 31.4165 6.93746 31.4165C5.14172 31.4165 3.41953 30.7031 2.14976 29.4334C0.87998 28.1636 0.166626 26.4414 0.166626 24.6457V24.1248C0.166176 22.3711 0.797791 20.676 1.9457 19.3502C3.09361 18.0243 4.6809 17.1566 6.41663 16.9061V14.7498Z" fill="white"/>
</svg>
