<svg width="74" height="75" viewBox="0 0 74 75" fill="none" xmlns="http://www.w3.org/2000/svg">
<path fill-rule="evenodd" clip-rule="evenodd" d="M37.2136 6.94141C41.2297 6.94139 45.2064 7.7324 48.9168 9.26927C52.6272 10.8061 55.9985 13.0588 58.8383 15.8986C61.6781 18.7384 63.9308 22.1097 65.4677 25.8201C67.0046 29.5304 67.7956 33.5072 67.7956 37.5233C67.7956 54.4132 54.1035 68.1053 37.2136 68.1053C20.3238 68.1053 6.63171 54.4132 6.63171 37.5233C6.63171 20.6335 20.3238 6.94141 37.2136 6.94141ZM40.2719 40.5816H34.1554C26.5843 40.5816 20.0842 45.167 17.2807 51.7126C21.7166 57.9328 28.9914 61.9889 37.2136 61.9889C45.4357 61.9889 52.7106 57.9328 57.1466 51.7122C54.3431 45.167 47.843 40.5816 40.2719 40.5816ZM37.2136 16.116C32.1466 16.116 28.039 20.2236 28.039 25.2906C28.039 30.3575 32.1466 34.4651 37.2136 34.4651C42.2805 34.4651 46.3882 30.3575 46.3882 25.2906C46.3882 20.2236 42.2807 16.116 37.2136 16.116Z" fill="#DC143C"/>
</svg>
