<svg width="50" height="50" viewBox="0 0 50 50" fill="none" xmlns="http://www.w3.org/2000/svg">
<path d="M27.0833 18.7498H22.9166V14.5832H27.0833M27.0833 35.4165H22.9166V22.9165H27.0833M25 4.1665C22.2641 4.1665 19.555 4.70537 17.0274 5.75235C14.4998 6.79932 12.2031 8.33389 10.2686 10.2684C6.36156 14.1755 4.16663 19.4745 4.16663 24.9998C4.16663 30.5252 6.36156 35.8242 10.2686 39.7312C12.2031 41.6658 14.4998 43.2004 17.0274 44.2473C19.555 45.2943 22.2641 45.8332 25 45.8332C30.5253 45.8332 35.8243 43.6382 39.7313 39.7312C43.6384 35.8242 45.8333 30.5252 45.8333 24.9998C45.8333 22.264 45.2944 19.5549 44.2475 17.0273C43.2005 14.4996 41.6659 12.203 39.7313 10.2684C37.7968 8.33389 35.5001 6.79932 32.9725 5.75235C30.4449 4.70537 27.7358 4.1665 25 4.1665Z" fill="white"/>
</svg>
