<svg width="50" height="50" viewBox="0 0 50 50" fill="none" xmlns="http://www.w3.org/2000/svg">
<path d="M12.5002 41.6667C11.3543 41.6667 10.3738 41.2591 9.5585 40.4438C8.74322 39.6285 8.33488 38.6473 8.3335 37.5V33.3334C8.3335 32.7431 8.5335 32.2486 8.9335 31.85C9.3335 31.4514 9.82794 31.2514 10.4168 31.25C11.0057 31.2486 11.5009 31.4486 11.9022 31.85C12.3036 32.2514 12.5029 32.7459 12.5002 33.3334V37.5H37.5002V33.3334C37.5002 32.7431 37.7002 32.2486 38.1002 31.85C38.5002 31.4514 38.9946 31.2514 39.5835 31.25C40.1724 31.2486 40.6675 31.4486 41.0689 31.85C41.4703 32.2514 41.6696 32.7459 41.6668 33.3334V37.5C41.6668 38.6459 41.2592 39.6271 40.4439 40.4438C39.6286 41.2604 38.6474 41.6681 37.5002 41.6667H12.5002ZM22.9168 16.3542L19.0106 20.2604C18.5939 20.6771 18.0995 20.8771 17.5272 20.8604C16.955 20.8438 16.4599 20.6264 16.0418 20.2084C15.6599 19.7917 15.4599 19.3056 15.4418 18.75C15.4238 18.1945 15.6238 17.7084 16.0418 17.2917L23.5418 9.7917C23.7502 9.58336 23.9759 9.43614 24.2189 9.35003C24.462 9.26392 24.7224 9.22017 25.0002 9.21878C25.2779 9.21739 25.5384 9.26114 25.7814 9.35003C26.0245 9.43892 26.2502 9.58614 26.4585 9.7917L33.9585 17.2917C34.3752 17.7084 34.5752 18.1945 34.5585 18.75C34.5418 19.3056 34.3418 19.7917 33.9585 20.2084C33.5418 20.625 33.0474 20.8424 32.4752 20.8604C31.9029 20.8785 31.4078 20.6785 30.9897 20.2604L27.0835 16.3542V31.25C27.0835 31.8403 26.8835 32.3354 26.4835 32.7354C26.0835 33.1354 25.5891 33.3348 25.0002 33.3334C24.4113 33.332 23.9168 33.132 23.5168 32.7334C23.1168 32.3348 22.9168 31.8403 22.9168 31.25V16.3542Z" fill="black"/>
</svg>
