<svg width="27" height="30" viewBox="0 0 27 30" fill="none" xmlns="http://www.w3.org/2000/svg">
<g clip-path="url(#clip0_141_1559)">
<path d="M26.25 28.8281V30H0V28.8281C0 28.4398 0.314824 28.125 0.703125 28.125H1.875V7.03125C1.875 6.25459 2.50459 5.625 3.28125 5.625H8.4375V1.40625C8.4375 0.62959 9.06709 0 9.84375 0H16.4062C17.1829 0 17.8125 0.62959 17.8125 1.40625V5.625H22.9688C23.7454 5.625 24.375 6.25459 24.375 7.03125V28.125H25.5469C25.9352 28.125 26.25 28.4398 26.25 28.8281ZM18.0469 11.25H15.7031C15.3148 11.25 15 11.5648 15 11.9531V14.2969C15 14.6852 15.3148 15 15.7031 15H18.0469C18.4352 15 18.75 14.6852 18.75 14.2969V11.9531C18.75 11.5648 18.4352 11.25 18.0469 11.25ZM8.20312 15H10.5469C10.9352 15 11.25 14.6852 11.25 14.2969V11.9531C11.25 11.5648 10.9352 11.25 10.5469 11.25H8.20312C7.81482 11.25 7.5 11.5648 7.5 11.9531V14.2969C7.5 14.6852 7.81482 15 8.20312 15ZM14.2969 22.5H11.9531C11.5648 22.5 11.25 22.8148 11.25 23.2031V28.125H15V23.2031C15 22.8148 14.6852 22.5 14.2969 22.5ZM18.0469 16.875H15.7031C15.3148 16.875 15 17.1898 15 17.5781V19.9219C15 20.3102 15.3148 20.625 15.7031 20.625H18.0469C18.4352 20.625 18.75 20.3102 18.75 19.9219V17.5781C18.75 17.1898 18.4352 16.875 18.0469 16.875ZM11.25 17.5781C11.25 17.1898 10.9352 16.875 10.5469 16.875H8.20312C7.81482 16.875 7.5 17.1898 7.5 17.5781V19.9219C7.5 20.3102 7.81482 20.625 8.20312 20.625H10.5469C10.9352 20.625 11.25 20.3102 11.25 19.9219V17.5781ZM10.6641 5.625H12.1875V7.14844C12.1875 7.24168 12.2245 7.3311 12.2905 7.39703C12.3564 7.46296 12.4458 7.5 12.5391 7.5H13.7109C13.8042 7.5 13.8936 7.46296 13.9595 7.39703C14.0255 7.3311 14.0625 7.24168 14.0625 7.14844V5.625H15.5859C15.6792 5.625 15.7686 5.58796 15.8345 5.52203C15.9005 5.4561 15.9375 5.36668 15.9375 5.27344V4.10156C15.9375 4.00832 15.9005 3.9189 15.8345 3.85297C15.7686 3.78704 15.6792 3.75 15.5859 3.75H14.0625V2.22656C14.0625 2.13332 14.0255 2.0439 13.9595 1.97797C13.8936 1.91204 13.8042 1.875 13.7109 1.875H12.5391C12.4458 1.875 12.3564 1.91204 12.2905 1.97797C12.2245 2.0439 12.1875 2.13332 12.1875 2.22656V3.75H10.6641C10.5708 3.75 10.4814 3.78704 10.4155 3.85297C10.3495 3.9189 10.3125 4.00832 10.3125 4.10156V5.27344C10.3125 5.36668 10.3495 5.4561 10.4155 5.52203C10.4814 5.58796 10.5708 5.625 10.6641 5.625Z" fill="#001F3F"/>
</g>
<defs>
<clipPath id="clip0_141_1559">
<rect width="26.25" height="30" fill="white"/>
</clipPath>
</defs>
</svg>
