<svg width="14" height="14" viewBox="0 0 14 14" fill="none" xmlns="http://www.w3.org/2000/svg">
<path d="M10.5 7.58171H7.58329V10.4984C7.58329 10.6531 7.52183 10.8015 7.41244 10.9109C7.30304 11.0202 7.15467 11.0817 6.99996 11.0817C6.84525 11.0817 6.69688 11.0202 6.58748 10.9109C6.47808 10.8015 6.41663 10.6531 6.41663 10.4984V7.58171H3.49996C3.34525 7.58171 3.19688 7.52025 3.08748 7.41085C2.97808 7.30146 2.91663 7.15308 2.91663 6.99837C2.91663 6.84366 2.97808 6.69529 3.08748 6.58589C3.19688 6.4765 3.34525 6.41504 3.49996 6.41504H6.41663V3.49837C6.41663 3.34366 6.47808 3.19529 6.58748 3.08589C6.69688 2.9765 6.84525 2.91504 6.99996 2.91504C7.15467 2.91504 7.30304 2.9765 7.41244 3.08589C7.52183 3.19529 7.58329 3.34366 7.58329 3.49837V6.41504H10.5C10.6547 6.41504 10.803 6.4765 10.9124 6.58589C11.0218 6.69529 11.0833 6.84366 11.0833 6.99837C11.0833 7.15308 11.0218 7.30146 10.9124 7.41085C10.803 7.52025 10.6547 7.58171 10.5 7.58171Z" fill="#001F3F"/>
</svg>
