<svg width="30" height="30" viewBox="0 0 30 30" fill="none" xmlns="http://www.w3.org/2000/svg">
<path d="M22.9101 28.1254C21.7664 28.1254 20.1597 27.7118 17.7539 26.3676C14.8283 24.727 12.5654 23.2123 9.65565 20.3102C6.85018 17.5065 5.48494 15.6913 3.5742 12.2143C1.41561 8.28852 1.78358 6.23071 2.19491 5.35121C2.68475 4.30004 3.4078 3.67133 4.34237 3.04731C4.8732 2.69952 5.43495 2.40138 6.02049 2.15668C6.07909 2.13149 6.13358 2.10746 6.18221 2.08578C6.47225 1.95512 6.9117 1.75766 7.46834 1.9686C7.83983 2.10805 8.17147 2.3934 8.69061 2.9061C9.75526 3.9561 11.2101 6.29457 11.7469 7.44301C12.1072 8.21703 12.3457 8.72797 12.3463 9.30102C12.3463 9.97192 12.0088 10.4893 11.5992 11.0477C11.5224 11.1526 11.4463 11.2528 11.3724 11.35C10.9265 11.936 10.8287 12.1053 10.8931 12.4077C11.0238 13.0153 11.9982 14.8241 13.5996 16.4219C15.201 18.0198 16.9576 18.9327 17.5676 19.0627C17.8828 19.1301 18.0556 19.0282 18.6603 18.5664C18.7471 18.5002 18.8361 18.4317 18.9293 18.3631C19.5539 17.8985 20.0473 17.5698 20.7023 17.5698H20.7058C21.276 17.5698 21.764 17.817 22.5726 18.2248C23.6273 18.7569 26.0361 20.193 27.0926 21.2588C27.6064 21.7768 27.893 22.1073 28.033 22.4782C28.2439 23.0366 28.0453 23.4743 27.9158 23.7672C27.8941 23.8159 27.8701 23.8692 27.8449 23.9284C27.5983 24.5129 27.2984 25.0734 26.949 25.603C26.3262 26.5346 25.6951 27.2559 24.6416 27.7463C24.1006 28.0023 23.5086 28.1319 22.9101 28.1254Z" fill="#001F3F"/>
</svg>
