<svg width="30" height="30" viewBox="0 0 30 30" fill="none" xmlns="http://www.w3.org/2000/svg">
<g clip-path="url(#clip0_141_1595)">
<path d="M16.875 8.90592C16.875 8.53296 17.0232 8.17527 17.2869 7.91155C17.5506 7.64783 17.9083 7.49967 18.2813 7.49967H25.7813C26.0592 7.49991 26.3309 7.58252 26.5619 7.73706C26.7929 7.8916 26.973 8.11113 27.0793 8.36794C27.1856 8.62474 27.2135 8.9073 27.1593 9.17992C27.1052 9.45255 26.9714 9.70301 26.775 9.89967L23.2313 13.4472C23.8163 13.5897 24.3638 13.7847 24.8569 14.0453C26.2481 14.7784 27.1894 16.0384 27.1894 17.8047C27.1894 19.029 26.7563 20.0697 26.01 20.8553C25.2863 21.6203 24.3338 22.0797 23.37 22.3122C21.4763 22.7678 19.1981 22.4303 17.5125 21.324C17.2243 21.1098 17.0288 20.7936 16.966 20.44C16.9032 20.0864 16.9779 19.7222 17.1747 19.4219C17.3716 19.1215 17.6758 18.9077 18.0251 18.8243C18.3744 18.7408 18.7424 18.7939 19.0538 18.9728C20.055 19.629 21.5288 19.8615 22.7119 19.5765C23.2856 19.4397 23.7056 19.1997 23.9681 18.9222C24.21 18.6672 24.3769 18.3222 24.3769 17.8047C24.3769 17.2272 24.1463 16.8503 23.5444 16.5334C22.845 16.164 21.7069 15.9372 20.1581 15.9372C19.8802 15.9369 19.6085 15.8543 19.3775 15.6998C19.1465 15.5452 18.9664 15.3257 18.8601 15.0689C18.7538 14.8121 18.7259 14.5295 18.7801 14.2569C18.8342 13.9843 18.968 13.7338 19.1644 13.5372L22.3894 10.3122H18.2813C17.9083 10.3122 17.5506 10.164 17.2869 9.90029C17.0232 9.63657 16.875 9.27888 16.875 8.90592ZM10.1494 19.7115C9.49314 19.6178 8.70564 19.9234 8.30626 20.784C8.23095 20.9554 8.1222 21.1099 7.98639 21.2387C7.85058 21.3674 7.69044 21.4678 7.51536 21.5338C7.34027 21.5999 7.15376 21.6303 6.96675 21.6234C6.77974 21.6164 6.596 21.5722 6.42629 21.4934C6.25659 21.4145 6.10433 21.3026 5.97844 21.1641C5.85255 21.0257 5.75556 20.8635 5.69316 20.687C5.63076 20.5106 5.60419 20.3235 5.61503 20.1367C5.62587 19.9499 5.67388 19.7671 5.75626 19.599C6.70876 17.5478 8.73564 16.6647 10.5525 16.9272C12.4275 17.199 14.0625 18.699 14.0625 21.0934C14.0625 23.7803 12.0225 25.2034 10.7063 26.1203C10.1288 26.5253 9.63564 26.8647 9.25876 27.1947H13.125C13.498 27.1947 13.8557 27.3428 14.1194 27.6066C14.3831 27.8703 14.5313 28.228 14.5313 28.6009C14.5313 28.9739 14.3831 29.3316 14.1194 29.5953C13.8557 29.859 13.498 30.0072 13.125 30.0072H7.03126C6.6583 30.0072 6.30062 29.859 6.03689 29.5953C5.77317 29.3316 5.62501 28.9739 5.62501 28.6009C5.62501 27.3072 6.18751 26.3303 6.88126 25.5822C7.53376 24.8847 8.38126 24.3147 9.03751 23.8572C10.5375 22.8072 11.25 22.1622 11.25 21.0934C11.25 20.2065 10.7494 19.7997 10.1494 19.7115ZM10.5075 0.166545C10.7318 0.286635 10.9193 0.46533 11.0501 0.683589C11.1809 0.901847 11.2499 1.15149 11.25 1.40592V10.3497H12.5831C12.9561 10.3497 13.3138 10.4978 13.5775 10.7616C13.8412 11.0253 13.9894 11.383 13.9894 11.7559C13.9894 12.1289 13.8412 12.4866 13.5775 12.7503C13.3138 13.014 12.9561 13.1622 12.5831 13.1622H7.04814C6.67518 13.1622 6.31749 13.014 6.05377 12.7503C5.79005 12.4866 5.64189 12.1289 5.64189 11.7559C5.64189 11.383 5.79005 11.0253 6.05377 10.7616C6.31749 10.4978 6.67518 10.3497 7.04814 10.3497H8.43751V4.03092L7.81126 4.44904C7.50093 4.65104 7.12345 4.72249 6.76076 4.64787C6.39808 4.57326 6.07945 4.35861 5.87406 4.05052C5.66866 3.74242 5.59307 3.36575 5.66369 3.00226C5.73431 2.63878 5.94545 2.31782 6.25126 2.10904L9.06376 0.234045C9.2756 0.0928914 9.52178 0.0118857 9.77604 -0.000332123C10.0303 -0.01255 10.2831 0.0444782 10.5075 0.16467V0.166545Z" fill="#001F3F"/>
</g>
<defs>
<clipPath id="clip0_141_1595">
<rect width="30" height="30" fill="white"/>
</clipPath>
</defs>
</svg>
